<svg width="379" height="116" viewBox="0 0 379 116" fill="none" xmlns="http://www.w3.org/2000/svg">
<path d="M8.77293 2.28091H65.9725C88.7821 2.28091 105.977 17.5458 105.977 40.3554C105.977 63.1651 88.7821 77.7282 65.9725 77.7282H30.7053V99.3096H8.77293V2.28091ZM30.7053 22.2832V57.7259H65.0952C76.3245 57.7259 84.0447 51.5848 84.0447 40.3554C84.0447 29.1261 76.3245 22.2832 65.0952 22.2832H30.7053ZM141.362 50.883C141.362 70.8853 155.574 82.9919 173.822 82.9919C192.07 82.9919 206.282 70.8853 206.282 50.883C206.282 30.8807 192.07 18.774 173.822 18.774C155.574 18.774 141.362 30.8807 141.362 50.883ZM228.214 50.883C228.214 81.4128 203.299 101.766 173.822 101.766C144.345 101.766 119.43 81.4128 119.43 50.883C119.43 20.3532 144.345 -4.98951e-05 173.822 -4.98951e-05C203.299 -4.98951e-05 228.214 20.3532 228.214 50.883Z" fill="#28282B"/>
<path d="M274.944 2.28091H363.024V22.1077H296.876V40.0045H356.357V59.8314H296.876V79.1318H365.481V99.3096H274.944V2.28091Z" fill="#28282B"/>
<ellipse cx="251.164" cy="52.8598" rx="12.9466" ry="13.1533" fill="#386FDE"/>
</svg>
