<svg width="73" height="22" viewBox="0 0 73 22" fill="none" xmlns="http://www.w3.org/2000/svg">
<path d="M1.6807 0.911464H12.6389C17.0087 0.911464 20.3028 3.83588 20.3028 8.2057C20.3028 12.5755 17.0087 15.3655 12.6389 15.3655H5.88245V19.5H1.6807V0.911464ZM5.88245 4.74346V11.5335H12.4708C14.6221 11.5335 16.1011 10.357 16.1011 8.2057C16.1011 6.05441 14.6221 4.74346 12.4708 4.74346H5.88245ZM27.0818 10.2225C27.0818 14.0545 29.8046 16.3739 33.3004 16.3739C36.7963 16.3739 39.519 14.0545 39.519 10.2225C39.519 6.39054 36.7963 4.07118 33.3004 4.07118C29.8046 4.07118 27.0818 6.39054 27.0818 10.2225ZM43.7208 10.2225C43.7208 16.0714 38.9476 19.9706 33.3004 19.9706C27.6533 19.9706 22.8801 16.0714 22.8801 10.2225C22.8801 4.37371 27.6533 0.474482 33.3004 0.474482C38.9476 0.474482 43.7208 4.37371 43.7208 10.2225Z" fill="#28282B"/>
<path d="M53.6807 0.911464H70.5549V4.70984H57.8824V8.13847H69.2776V11.9369H57.8824V15.6344H71.0255V19.5H53.6807V0.911464Z" fill="#28282B"/>
<circle cx="48.5" cy="10" r="2.5" fill="#386FDE"/>
</svg>
