<svg width="486" height="101" viewBox="0 0 486 101" fill="none" xmlns="http://www.w3.org/2000/svg">
<g clip-path="url(#clip0_12_1174)">
<path d="M0 -1.26546L29.8253 -1.4231C38.1615 23.583 48.7786 47.9379 56.5281 73.1022C67.0374 48.4856 76.2079 23.2787 86.6619 -1.3799L111.644 -1.33425C121.842 22.1467 131.866 50.2322 139.469 74.6479C144.442 65.8541 148.813 56.6282 153.43 47.6275C161.796 31.2449 170.306 14.9298 178.958 -1.30683L204.483 -1.41214C223.571 32.9001 242.841 67.1138 262.29 101.224C260.319 103.159 235.58 102.173 231.089 102.161C223.502 89.783 217.044 76.4128 210.152 63.6207C203.75 51.7354 196.701 40.0691 190.764 27.9586C183.212 41.9617 176.047 56.2083 168.773 70.3575C163.365 80.8857 157.656 91.3653 152.771 102.137H123.415C118.81 84.5371 111.877 66.9921 105.82 49.8183C103.164 42.2904 100.311 34.8597 98.4632 27.0762C87.8997 51.8205 79.5058 77.4595 68.8589 102.173L40.398 102.155C34.4468 89.1623 29.8569 75.147 24.7109 61.795L0 -1.26546Z" fill="#386FDE"/>
<path d="M296.875 90V11.5155H324.85C330.956 11.5155 336.015 12.6269 340.026 14.8496C344.037 17.0723 347.039 20.1125 349.031 23.9703C351.024 27.8026 352.021 32.1202 352.021 36.9233C352.021 41.752 351.011 46.0952 348.993 49.953C347 53.7852 343.986 56.8255 339.949 59.0737C335.938 61.2964 330.892 62.4078 324.812 62.4078H305.574V52.3673H323.739C327.596 52.3673 330.726 51.703 333.128 50.3745C335.529 49.0205 337.292 47.181 338.416 44.8561C339.54 42.5312 340.102 39.8869 340.102 36.9233C340.102 33.9597 339.54 31.3283 338.416 29.0289C337.292 26.7295 335.516 24.9284 333.089 23.6254C330.688 22.3225 327.52 21.671 323.585 21.671H308.716V90H296.875ZM389.04 91.188C383.522 91.188 378.706 89.9234 374.593 87.3941C370.479 84.8648 367.286 81.3263 365.012 76.7787C362.738 72.2311 361.601 66.9171 361.601 60.8366C361.601 54.7305 362.738 49.3909 365.012 44.8178C367.286 40.2446 370.479 36.6934 374.593 34.1641C378.706 31.6348 383.522 30.3702 389.04 30.3702C394.559 30.3702 399.374 31.6348 403.488 34.1641C407.601 36.6934 410.795 40.2446 413.068 44.8178C415.342 49.3909 416.479 54.7305 416.479 60.8366C416.479 66.9171 415.342 72.2311 413.068 76.7787C410.795 81.3263 407.601 84.8648 403.488 87.3941C399.374 89.9234 394.559 91.188 389.04 91.188ZM389.078 81.569C392.655 81.569 395.619 80.6238 397.969 78.7332C400.32 76.8426 402.057 74.3261 403.181 71.1837C404.331 68.0412 404.906 64.5794 404.906 60.7983C404.906 57.0426 404.331 53.5936 403.181 50.4512C402.057 47.2832 400.32 44.7411 397.969 42.825C395.619 40.9089 392.655 39.9508 389.078 39.9508C385.476 39.9508 382.487 40.9089 380.111 42.825C377.761 44.7411 376.01 47.2832 374.861 50.4512C373.737 53.5936 373.175 57.0426 373.175 60.7983C373.175 64.5794 373.737 68.0412 374.861 71.1837C376.01 74.3261 377.761 76.8426 380.111 78.7332C382.487 80.6238 385.476 81.569 389.078 81.569ZM454.639 91.188C448.839 91.188 443.844 89.9489 439.655 87.4707C435.49 84.967 432.271 81.4541 429.997 76.932C427.749 72.3844 426.625 67.0576 426.625 60.9515C426.625 54.9221 427.749 49.6081 429.997 45.0094C432.271 40.4107 435.439 36.8211 439.501 34.2408C443.589 31.6604 448.367 30.3702 453.834 30.3702C457.155 30.3702 460.374 30.9195 463.491 32.0181C466.608 33.1166 469.406 34.8411 471.884 37.1916C474.362 39.542 476.316 42.5951 477.747 46.3507C479.178 50.0807 479.893 54.6156 479.893 59.9552V64.0173H433.101V55.4331H468.665C468.665 52.4184 468.052 49.7486 466.825 47.4237C465.599 45.0733 463.874 43.221 461.652 41.8669C459.455 40.5129 456.874 39.8358 453.911 39.8358C450.691 39.8358 447.881 40.6278 445.48 42.2118C443.104 43.7703 441.264 45.8142 439.961 48.3434C438.684 50.8472 438.045 53.5681 438.045 56.5061V63.2126C438.045 67.147 438.735 70.4938 440.114 73.2531C441.52 76.0123 443.474 78.12 445.978 79.5763C448.482 81.007 451.407 81.7223 454.754 81.7223C456.925 81.7223 458.905 81.4158 460.694 80.8026C462.482 80.1639 464.028 79.2186 465.331 77.9667C466.634 76.7149 467.63 75.1692 468.32 73.3297L479.165 75.2842C478.296 78.4777 476.738 81.2752 474.49 83.6768C472.267 86.0528 469.469 87.905 466.097 89.2335C462.75 90.5365 458.931 91.188 454.639 91.188Z" fill="black"/>
</g>
<defs>
<clipPath id="clip0_12_1174">
<rect width="485.252" height="101" fill="white"/>
</clipPath>
</defs>
</svg>
