<svg width="94" height="26" viewBox="0 0 94 26" fill="none" xmlns="http://www.w3.org/2000/svg">
<path d="M0 3.03036L5.74414 3C7.34962 7.81598 9.39439 12.5066 10.8869 17.353C12.9109 12.612 14.6771 7.75738 16.6904 3.00832L21.5017 3.01711C23.4659 7.53938 25.3965 12.9484 26.8606 17.6507C27.8185 15.9571 28.6603 14.1803 29.5495 12.4468C31.1608 9.29161 32.7997 6.14944 34.466 3.02239L39.3819 3.00211C43.0581 9.6104 46.7693 16.1997 50.5152 22.7691C50.1354 23.1418 45.371 22.9519 44.5059 22.9496C43.0448 20.5656 41.8011 17.9906 40.4737 15.527C39.2407 13.2379 37.8831 10.9911 36.7396 8.65869C35.2854 11.3556 33.9053 14.0994 32.5044 16.8244C31.4629 18.8521 30.3633 20.8703 29.4225 22.9449H23.7688C22.8818 19.5553 21.5466 16.1763 20.3802 12.8687C19.8686 11.4189 19.3192 9.9878 18.9633 8.48874C16.9288 13.2543 15.3122 18.1922 13.2617 22.9519L7.78035 22.9484C6.6342 20.4461 5.75023 17.7468 4.75913 15.1753L0 3.03036Z" fill="#386FDE"/>
<path d="M57.1758 21V5.88447H62.5636C63.7396 5.88447 64.7139 6.09851 65.4864 6.52658C66.2589 6.95466 66.837 7.54019 67.2208 8.28317C67.6046 9.02124 67.7965 9.85279 67.7965 10.7778C67.7965 11.7078 67.6021 12.5443 67.2134 13.2872C66.8296 14.0253 66.249 14.6108 65.4716 15.0438C64.6991 15.4719 63.7273 15.6859 62.5563 15.6859H58.8512V13.7522H62.3496C63.0926 13.7522 63.6953 13.6243 64.1579 13.3684C64.6204 13.1076 64.9599 12.7534 65.1764 12.3056C65.3929 11.8579 65.5011 11.3486 65.5011 10.7778C65.5011 10.2071 65.3929 9.70026 65.1764 9.25742C64.9599 8.81458 64.6179 8.46769 64.1505 8.21675C63.688 7.96581 63.0778 7.84034 62.3201 7.84034H59.4564V21H57.1758ZM74.9262 21.2288C73.8634 21.2288 72.9359 20.9852 72.1437 20.4981C71.3515 20.011 70.7365 19.3295 70.2985 18.4537C69.8606 17.5778 69.6417 16.5544 69.6417 15.3833C69.6417 14.2074 69.8606 13.179 70.2985 12.2982C70.7365 11.4175 71.3515 10.7335 72.1437 10.2464C72.9359 9.7593 73.8634 9.51574 74.9262 9.51574C75.989 9.51574 76.9165 9.7593 77.7087 10.2464C78.5009 10.7335 79.1159 11.4175 79.5538 12.2982C79.9918 13.179 80.2107 14.2074 80.2107 15.3833C80.2107 16.5544 79.9918 17.5778 79.5538 18.4537C79.1159 19.3295 78.5009 20.011 77.7087 20.4981C76.9165 20.9852 75.989 21.2288 74.9262 21.2288ZM74.9336 19.3763C75.6224 19.3763 76.1932 19.1942 76.6459 18.8301C77.0986 18.466 77.4331 17.9813 77.6496 17.3761C77.8711 16.7709 77.9818 16.1042 77.9818 15.376C77.9818 14.6527 77.8711 13.9884 77.6496 13.3832C77.4331 12.7731 77.0986 12.2835 76.6459 11.9144C76.1932 11.5454 75.6224 11.3609 74.9336 11.3609C74.2398 11.3609 73.6641 11.5454 73.2065 11.9144C72.7538 12.2835 72.4168 12.7731 72.1954 13.3832C71.9789 13.9884 71.8706 14.6527 71.8706 15.376C71.8706 16.1042 71.9789 16.7709 72.1954 17.3761C72.4168 17.9813 72.7538 18.466 73.2065 18.8301C73.6641 19.1942 74.2398 19.3763 74.9336 19.3763ZM87.56 21.2288C86.4431 21.2288 85.4811 20.9902 84.6742 20.5129C83.8721 20.0307 83.2522 19.3541 82.8142 18.4832C82.3812 17.6074 82.1647 16.5815 82.1647 15.4055C82.1647 14.2443 82.3812 13.2208 82.8142 12.3351C83.2522 11.4495 83.8623 10.7581 84.6446 10.2612C85.4319 9.76422 86.352 9.51574 87.405 9.51574C88.0446 9.51574 88.6646 9.62153 89.2649 9.83311C89.8652 10.0447 90.404 10.3768 90.8813 10.8295C91.3586 11.2822 91.735 11.8702 92.0105 12.5935C92.286 13.3118 92.4238 14.1852 92.4238 15.2136V15.9959H83.4121V14.3427H90.2613C90.2613 13.7621 90.1432 13.2479 89.907 12.8001C89.6708 12.3474 89.3387 11.9907 88.9106 11.7299C88.4875 11.4691 87.9905 11.3388 87.4198 11.3388C86.7998 11.3388 86.2585 11.4913 85.796 11.7964C85.3384 12.0965 84.9841 12.4901 84.7332 12.9773C84.4872 13.4595 84.3642 13.9835 84.3642 14.5493V15.8409C84.3642 16.5987 84.497 17.2433 84.7627 17.7747C85.0334 18.3061 85.4098 18.712 85.892 18.9925C86.3742 19.268 86.9376 19.4058 87.5821 19.4058C88.0004 19.4058 88.3817 19.3467 88.7261 19.2286C89.0706 19.1056 89.3682 18.9236 89.6192 18.6825C89.8701 18.4414 90.062 18.1437 90.1949 17.7894L92.2836 18.1658C92.1163 18.7809 91.8161 19.3197 91.3832 19.7822C90.9551 20.2398 90.4163 20.5965 89.7668 20.8524C89.1222 21.1033 88.3866 21.2288 87.56 21.2288Z" fill="black"/>
</svg>
